# xmcd CD database file
#
# Track frame offsets:
#	150
#	18682
#	36463
#	54684
#	86426
#	120689
#	143077
#	167287
#	184343
#	204651
#	221982
#
# Disc length: 3177 seconds
#
# Revision: 0
# Processed by: cddbd v1.5.2PL0 Copyright (c) Steve Scherf et al.
# Submitted via: CDex 1.70beta2
#
DISCID=a40c670b
DTITLE=Cash Savage and the Last Drinks - Wolf
DYEAR=2010
DGENRE=Country
TTITLE0=Dancing On Graves
TTITLE1=One Key
TTITLE2=She's Gonna Love Me
TTITLE3=I'm Doin' So Well
TTITLE4=For The Goodtimes
TTITLE5=I Seen Your Baby
TTITLE6=Downtown
TTITLE7=Life Sucking Scab
TTITLE8=19 Years
TTITLE9=Honkytonk
TTITLE10=Another Glass Of Wine
EXTD=YEAR: 2010
EXTT0=
EXTT1=
EXTT2=
EXTT3=
EXTT4=
EXTT5=
EXTT6=
EXTT7=
EXTT8=
EXTT9=
EXTT10=
PLAYORDER=
